<svg width="500" height="500" viewBox="0 0 500 500" fill="none" xmlns="http://www.w3.org/2000/svg">
<g clip-path="url(#clip0_188_2)">
<path d="M350.08 416C345.913 416 343.83 413.917 343.83 409.75V89C343.83 84.8333 345.913 82.75 350.08 82.75H441.58C445.747 82.75 447.83 84.8333 447.83 89V316H490.08C494.247 316 496.33 318.083 496.33 322.25V409.75C496.33 413.917 494.247 416 490.08 416H350.08Z" fill="#FFFF00"/>
<path d="M180.08 416C175.913 416 173.83 413.917 173.83 409.75V89C173.83 84.8333 175.913 82.75 180.08 82.75H271.58C275.747 82.75 277.83 84.8333 277.83 89V316H320.08C324.247 316 326.33 318.083 326.33 322.25V409.75C326.33 413.917 324.247 416 320.08 416H180.08Z" fill="#00FDFD"/>
<path d="M10.0801 416C5.91341 416 3.83008 413.917 3.83008 409.75V89C3.83008 84.8333 5.91341 82.75 10.0801 82.75H101.58C105.747 82.75 107.83 84.8333 107.83 89V316H150.08C154.247 316 156.33 318.083 156.33 322.25V409.75C156.33 413.917 154.247 416 150.08 416H10.0801Z" fill="#F06449"/>
</g>
<defs>
<clipPath id="clip0_188_2">
<rect width="500" height="500" fill="white"/>
</clipPath>
</defs>
</svg>
